<svg id="Layer_1" data-name="Layer 1" xmlns="http://www.w3.org/2000/svg" viewBox="0 0 30 30"><defs><style>.cls-1{fill:#fff209;}</style></defs><title>!</title><path class="cls-1" d="M5.5,13.3a9,9,0,0,1,1.6.3l1,.3.5-.2c.1-.1.1-.2.2-.2s.3.2.3.4a6.5,6.5,0,0,1-.4,1.3,2.3,2.3,0,0,1-2,.9c-.8,0-1.9-.5-2.8-.5H3.6c-.7,0-.8.5-.8,1H2.2l.5-3.3h.6v.9c.8-.7,1.1-1.1,2.3-1.1M8,16.5a6.7,6.7,0,0,0-1,4.6,4.3,4.3,0,0,1,.2,1.2,1.7,1.7,0,0,1-1.6,1.8A1.9,1.9,0,0,1,3.8,22c0-2.2,2.2-3.4,3.2-5.2l1-.3M5.5,12.2l-1.3.2H1.8v.9l-.5,3.4L1,17.9H3.9V16.8h0l1.2.2h.5a2.7,2.7,0,0,0-.7.8A6.3,6.3,0,0,0,2.8,22c0,1.9,1.1,3.2,2.8,3.2a2.8,2.8,0,0,0,2.7-2.9A5.1,5.1,0,0,0,8.1,21h0A5.2,5.2,0,0,1,8.9,17l.6-1.2h.1l.3-.5.3-.7h-.1a1.3,1.3,0,0,0,.1-.6,1.4,1.4,0,0,0-1.4-1.4,1.2,1.2,0,0,0-.8.3l-.6-.2H7.2a4.3,4.3,0,0,0-1.7-.4"/><path class="cls-1" d="M14.6,4.4a8.2,8.2,0,0,1,2.7.6l1.8.4a1.1,1.1,0,0,0,.8-.3c.1-.2.2-.3.4-.3s.5.3.5.6A7,7,0,0,1,20,7.7c-.6,1-1.8,1.4-3.3,1.4s-3.2-.7-4.8-.7h-.6c-1.1.2-1.3.9-1.3,1.8v.2H9l.8-5.7h1l-.2,1.6c1.5-1.2,2-1.9,4-1.9M18.8,10a18.3,18.3,0,0,0-1.6,10.3,8.3,8.3,0,0,1,.3,2.2,2.9,2.9,0,0,1-2.8,3.1c-2,0-3-1.8-3-3.6,0-3.8,3.7-8.6,5.4-11.6a4.7,4.7,0,0,0,1.7-.4M14.6,3.3a5.5,5.5,0,0,0-2.6.6V3.7H8.9v.9l-.9,5.7v1.2h3.3V10.2c0-.5,0-.6.1-.6h.7l2.2.3,1.9.4-1,1.7c-1.9,3-4.3,6.7-4.3,10.1s1.6,4.7,4,4.7a4.1,4.1,0,0,0,3.9-4.2,6,6,0,0,0-.3-2v-.4a16.6,16.6,0,0,1,1.5-9.7l1.1-2.1h0a7.5,7.5,0,0,0,1-2.8,1.6,1.6,0,0,0-1.6-1.7,1.5,1.5,0,0,0-1,.5h-.1a.1.1,0,0,0-.1.1L17.7,4l-.5-.2a9.2,9.2,0,0,0-2.6-.5"/><path class="cls-1" d="M24.3,13.3a9,9,0,0,1,1.6.3l1,.3.5-.2.2-.2c.2,0,.3.2.3.4a3.5,3.5,0,0,1-.5,1.3,2,2,0,0,1-1.9.9c-.9,0-1.9-.5-2.8-.5h-.3c-.7,0-.8.5-.8,1H21l.5-3.3h.6v.9c.8-.7,1.1-1.1,2.3-1.1m2.4,3.2a7.1,7.1,0,0,0-.9,4.6,4.3,4.3,0,0,1,.2,1.2,1.7,1.7,0,0,1-1.7,1.8c-1.1,0-1.7-1-1.7-2.1s2.1-3.4,3.2-5.2a1.6,1.6,0,0,0,.9-.3m-2.4-4.3-1.3.2H20.6v.9L20,16.7l-.2,1.2h2.9V16.8h0l1.2.2h.4l-.6.8A6.3,6.3,0,0,0,21.6,22c0,1.9,1.1,3.2,2.7,3.2a2.9,2.9,0,0,0,2.8-2.9,5.1,5.1,0,0,0-.2-1.3h0a5.2,5.2,0,0,1,.8-3.9l.6-1.2h.1l.2-.5.4-.7h-.1a1.3,1.3,0,0,0,.1-.6,1.4,1.4,0,0,0-1.4-1.4,1.2,1.2,0,0,0-.8.3l-.6-.2H26a4.3,4.3,0,0,0-1.7-.4"/></svg>