<svg id="Layer_1" data-name="Layer 1" xmlns="http://www.w3.org/2000/svg" viewBox="0 0 30 30"><defs><style>.cls-1{fill:#fff209;}</style></defs><title>!</title><path class="cls-1" d="M20,28.6H10.3a2.4,2.4,0,0,1-1.2-.3,3.1,3.1,0,0,1-1.8-2.8V5.4A.6.6,0,0,1,7.4,5a2.4,2.4,0,0,1,.5-1.4,3,3,0,0,1,2.4-1.2H20a3,3,0,0,1,2.4,1.2,5,5,0,0,1,.5,1.3.9.9,0,0,1,.1.5V25.5a3,3,0,0,1-1.7,2.7A2,2,0,0,1,20,28.6ZM10.3,3.4a2.1,2.1,0,0,0-1.6.8,3.6,3.6,0,0,0-.4.9V25.5a2.2,2.2,0,0,0,1.2,1.9l.8.2H20a1.6,1.6,0,0,0,.9-.3A1.9,1.9,0,0,0,22,25.5V5.4a.4.4,0,0,0-.1-.3,1.6,1.6,0,0,0-.3-.9A2.1,2.1,0,0,0,20,3.4Z"/><path class="cls-1" d="M8.1,28.6a2.8,2.8,0,0,1-2.6-2.1L.9,9.3A2.8,2.8,0,0,1,1,7.5,2.6,2.6,0,0,1,2.8,5.9L7.7,4.6a.4.4,0,0,1,.5.1c.1.1.2.3.1.4V25.5a2.2,2.2,0,0,0,1.2,1.9.5.5,0,0,1,.3.5.4.4,0,0,1-.4.4l-.6.2ZM7.3,5.7,3,6.9a1.6,1.6,0,0,0-1.1,1A2,2,0,0,0,1.8,9L6.5,26.3a2,2,0,0,0,1.6,1.3,3.2,3.2,0,0,1-.8-2.1Z"/><path class="cls-1" d="M22.4,28.6h-.7l-.7-.2a.7.7,0,0,1-.4-.5.5.5,0,0,1,.3-.5A2.1,2.1,0,0,0,22,25.5V5.4a.4.4,0,0,0-.1-.3.8.8,0,0,1,.2-.5.4.4,0,0,1,.5-.1l5.2,1.4a2.6,2.6,0,0,1,1.8,1.6,3.7,3.7,0,0,1,.1,1.8L25.1,26.5A3,3,0,0,1,22.4,28.6Zm-.2-1.1a1.6,1.6,0,0,0,1.9-1.2L28.7,9h0a2,2,0,0,0,0-1.1,1.7,1.7,0,0,0-1.2-1L23,5.6V25.5A2.8,2.8,0,0,1,22.2,27.5Z"/><path class="cls-1" d="M20,22.1l-1.1,3.2h-.5l-1.1-3.2h.5l.3.9h1.2l.3-.9Zm-1.8,1.2.5,1.5.5-1.5Z"/><path class="cls-1" d="M18.9,25.8h-.5a.7.7,0,0,1-.5-.4l-1-3.2a.3.3,0,0,1,0-.4l.4-.2h.5a.5.5,0,0,1,.5.3v.6h.5l.2-.6a.5.5,0,0,1,.5-.3H20a.5.5,0,0,1,.4.2.6.6,0,0,1,.1.4l-1.1,3.2C19.3,25.6,19.2,25.8,18.9,25.8Z"/><path class="cls-1" d="M10.3,8.9l1.1-3.2h.5L13,8.9h-.5L12.2,8H11l-.3.9Zm1.8-1.3-.5-1.5-.5,1.5Z"/><path class="cls-1" d="M13,9.4h-.5A.7.7,0,0,1,12,9V8.5h-.5l-.2.5a.7.7,0,0,1-.5.4h-.4a.5.5,0,0,1-.4-.2.9.9,0,0,1-.1-.5l1.1-3.2a.5.5,0,0,1,.5-.3h.5a.5.5,0,0,1,.5.3l1,3.2a.5.5,0,0,1,0,.5Z"/><path class="cls-1" d="M17.2,18.6a2.5,2.5,0,0,1-2.5-2.5.5.5,0,0,1,.5-.5.5.5,0,0,1,.5.5,1.5,1.5,0,0,0,1.5,1.5,1.6,1.6,0,0,0,1.6-1.5c0-1.4-1.8-3.4-3.6-4.9-1.8,1.4-3.7,3.5-3.7,4.9a1.6,1.6,0,0,0,1.6,1.5l.6-.2a.5.5,0,0,1,.7.3.7.7,0,0,1-.2.7l-1.1.2a2.5,2.5,0,0,1-2.6-2.5c0-2.3,3-4.9,4.3-5.9a.5.5,0,0,1,.7,0c1.3,1,4.3,3.6,4.3,5.9A2.5,2.5,0,0,1,17.2,18.6Z"/><path class="cls-1" d="M17.7,20.9a.5.5,0,0,1-.5-.5.9.9,0,0,0-.4-.6,2.7,2.7,0,0,0-1.7-.8c-1.1.1-2,1-2,1.4a.5.5,0,0,1-.5.5.6.6,0,0,1-.5-.5c0-1.1,1.5-2.3,2.9-2.4a3.4,3.4,0,0,1,2.5,1.1,1.9,1.9,0,0,1,.7,1.3A.5.5,0,0,1,17.7,20.9Z"/></svg>