<?xml version="1.0" encoding="utf-8"?>
<!-- Generator: Adobe Illustrator 24.0.1, SVG Export Plug-In . SVG Version: 6.00 Build 0)  -->
<svg version="1.1" id="Layer_1" xmlns="http://www.w3.org/2000/svg" xmlns:xlink="http://www.w3.org/1999/xlink" x="0px" y="0px"
	 viewBox="0 0 30 30" style="enable-background:new 0 0 30 30;" xml:space="preserve">
<style type="text/css">
	.st0{fill:#9B9B9B;}
</style>
<title>!</title>
<path class="st0" d="M22.8,28.5L22,28.3l-6.8-3.6h-0.4L8,28.3c-0.5,0.3-1.2,0.3-1.7-0.1c-0.5-0.3-0.7-0.9-0.6-1.5L7,19
	c0-0.1,0-0.2-0.1-0.3l-5.5-5.4c-0.5-0.4-0.6-1-0.4-1.6c0.1-0.6,0.6-1,1.2-1.1l7.7-1.1l0.3-0.2l3.4-6.9c0.2-0.6,0.8-0.9,1.4-0.9l0,0
	c0.6,0,1.2,0.3,1.4,0.9l3.4,6.9l0.3,0.2l7.7,1.1c0.6,0.1,1.1,0.5,1.2,1.1c0.2,0.6,0.1,1.2-0.4,1.6l-5.5,5.4C23,18.8,23,18.9,23,19
	l1.3,7.7c0.1,0.6-0.1,1.2-0.6,1.5C23.4,28.4,23.1,28.5,22.8,28.5z M15,23.4l0.7,0.2l6.9,3.6c0.2,0.1,0.3,0.1,0.4,0
	c0.1-0.1,0.1-0.2,0.1-0.3l-1.3-7.7c-0.1-0.5,0.1-1,0.4-1.3l5.6-5.5c0.1-0.1,0.1-0.2,0.1-0.3c0-0.1-0.1-0.2-0.3-0.3l-7.7-1.1
	c-0.5-0.1-0.9-0.4-1.2-0.8l-3.4-7c-0.1-0.2-0.2-0.2-0.3-0.2l0,0c-0.1,0-0.2,0-0.3,0.2l-3.4,7c-0.3,0.4-0.7,0.7-1.2,0.8l-7.7,1.1
	l-0.3,0.3c0,0.1,0,0.2,0.1,0.3l5.6,5.5c0.3,0.3,0.5,0.8,0.4,1.3l-1.3,7.7c0,0.1,0,0.2,0.1,0.3c0.1,0.1,0.2,0.1,0.4,0l6.9-3.6
	L15,23.4z"/>
</svg>
