<?xml version="1.0" encoding="utf-8"?>
<!-- Generator: Adobe Illustrator 24.0.1, SVG Export Plug-In . SVG Version: 6.00 Build 0)  -->
<svg version="1.1" id="Layer_1" xmlns="http://www.w3.org/2000/svg" xmlns:xlink="http://www.w3.org/1999/xlink" x="0px" y="0px"
	 viewBox="0 0 30 30" style="enable-background:new 0 0 30 30;" xml:space="preserve">
<style type="text/css">
	.st0{fill:#9B9B9B;}
</style>
<title>!</title>
<path class="st0" d="M15,11.5l0.3,0.2l1,2.1h0.2l2.3,0.4c0.2,0,0.3,0.2,0.2,0.4c0,0,0,0,0,0l-1.7,1.7c-0.1,0-0.1,0.1-0.1,0.2
	l0.4,2.3c0,0.2-0.1,0.3-0.3,0.3h-0.1L15.1,18h-0.2l-2.1,1.1h-0.1c-0.2,0-0.3-0.1-0.3-0.3l0.4-2.3c0-0.1,0-0.2-0.1-0.2L11,14.7
	c-0.1-0.2,0-0.3,0.2-0.4c0,0,0,0,0,0l2.3-0.4h0.2l1-2.1l0.3-0.2 M15,10.5c-0.5,0-1,0.2-1.2,0.7L12.9,13l-2,0.3
	c-0.5,0.1-0.9,0.4-1.1,0.9c-0.1,0.5,0,1,0.4,1.4l1.4,1.4l-0.3,1.9c-0.1,0.4,0,0.8,0.3,1.1c0.2,0.3,0.6,0.5,1,0.5h0.6l1.8-1l1.8,1
	h0.6c0.4,0,0.8-0.2,1-0.5c0.3-0.3,0.4-0.7,0.3-1.1L18.4,17l1.4-1.4c0.4-0.4,0.5-0.9,0.4-1.4c-0.2-0.5-0.6-0.8-1.1-0.9l-2-0.3
	l-0.9-1.8C16,10.7,15.5,10.5,15,10.5"/>
<path class="st0" d="M17.1,29.8c-0.5,0-1-0.2-1.3-0.6L15,28l-0.9,1.2c-0.3,0.5-0.9,0.7-1.5,0.6c-0.6-0.1-1.1-0.5-1.3-1.1l-0.4-1.4
	l-1.2,0.8c-0.5,0.4-1.2,0.4-1.7,0.1c-0.5-0.3-0.8-0.8-0.8-1.4v-1.5l-1.4,0.4c-0.6,0.2-1.2,0-1.6-0.4c-0.4-0.4-0.5-1.1-0.2-1.6
	l0.5-1.4H3c-0.6,0-1.1-0.4-1.3-0.9c-0.3-0.6-0.2-1.2,0.2-1.7l0.9-1.1L1.5,18c-0.6-0.2-1-0.7-1-1.3c0-0.6,0.3-1.2,0.8-1.5l1.2-0.7
	l-1.1-1c-0.4-0.4-0.6-1-0.5-1.6c0.2-0.5,0.6-1,1.2-1.1l1.5-0.3L2.8,9.1C2.5,8.6,2.5,8,2.9,7.5C3.2,7,3.8,6.7,4.4,6.8L5.8,7L5.5,5.5
	C5.4,4.9,5.6,4.3,6.1,4c0.5-0.4,1.1-0.5,1.7-0.2l1.3,0.6L9.3,3c0.1-0.6,0.5-1.1,1-1.3c0.6-0.2,1.2,0,1.6,0.4l1.1,1l0.7-1.3
	c0.3-0.5,0.8-0.9,1.4-0.9l0,0c0.6,0,1.1,0.4,1.4,0.9l0.6,1.3l1.1-1c0.4-0.4,1-0.6,1.6-0.4c0.5,0.2,0.9,0.7,1,1.3L21,4.5l1.3-0.6
	L23,3.7l0,0c0.9,0,1.6,0.7,1.6,1.6l0,0c0,0.1,0,0.3-0.1,0.4L24.3,7h1.6c0.5,0,1,0.3,1.3,0.7c0.3,0.5,0.3,1.1,0,1.6l-0.7,1.3l1.4,0.3
	c0.6,0.1,1.1,0.5,1.2,1.1c0.2,0.6,0,1.2-0.5,1.5l-1.1,1l1.2,0.8c0.5,0.3,0.9,0.8,0.8,1.4c-0.1,0.6-0.5,1.1-1,1.4l-1.4,0.5l1,1.1
	c0.4,0.5,0.4,1.1,0.2,1.7c-0.3,0.5-0.8,0.9-1.4,0.9h-1.4l0.5,1.3c0.2,0.6,0.1,1.2-0.3,1.7c-0.4,0.4-1,0.6-1.6,0.4l-1.4-0.4v1.5
	c0,0.6-0.3,1.1-0.8,1.4c-0.5,0.3-1.2,0.2-1.7-0.1L19,27.3l-0.4,1.4c-0.2,0.6-0.7,1-1.3,1.1H17.1z M15,26.3l1.6,2.3
	c0.1,0.2,0.3,0.2,0.5,0.2s0.5-0.1,0.5-0.4l0.9-2.7l2.3,1.7c0.2,0.1,0.4,0.1,0.6,0c0.2-0.1,0.3-0.3,0.3-0.5V24l2.8,0.8
	c0.2,0.1,0.4,0,0.5-0.1c0.2-0.2,0.2-0.4,0.1-0.6l-1-2.7H27c0.2,0,0.4-0.1,0.5-0.3c0.1-0.2,0-0.4-0.1-0.6l-1.8-2.2l2.6-1.1
	c0.2-0.1,0.4-0.2,0.4-0.5c0-0.2-0.1-0.4-0.3-0.5l-2.4-1.5l2.1-1.9c0.1-0.2,0.2-0.4,0.1-0.6c0-0.2-0.2-0.4-0.4-0.4l-2.8-0.6l1.5-2.5
	c0.1-0.2,0.1-0.4,0-0.6c-0.1-0.2-0.3-0.2-0.5-0.2L23,8.2l0.6-2.7V5.3c0-0.3-0.3-0.6-0.6-0.6l0,0h-0.2L20.2,6l-0.4-2.9
	c0-0.2-0.1-0.3-0.3-0.4c-0.2-0.1-0.4,0-0.6,0.1l-2.1,2l-1.2-2.6c-0.1-0.2-0.3-0.3-0.5-0.3l0,0c-0.2,0-0.5,0.1-0.6,0.3l-1.2,2.6
	l-2.1-2c-0.1-0.2-0.3-0.2-0.5-0.2c-0.2,0.1-0.4,0.3-0.4,0.5L9.9,5.9L7.3,4.7C7.1,4.6,6.9,4.6,6.7,4.8C6.6,4.9,6.5,5.1,6.5,5.3
	l0.6,2.8L4.2,7.8C4,7.7,3.8,7.9,3.7,8c-0.1,0.2-0.1,0.4,0,0.6l1.4,2.5l-2.8,0.6c-0.2,0-0.4,0.2-0.4,0.4c-0.1,0.2,0,0.4,0.2,0.6
	l2.1,1.8L1.8,16c-0.2,0.1-0.3,0.3-0.3,0.5c0,0.3,0.2,0.4,0.4,0.5l2.6,1.1l-1.8,2.2c-0.2,0.1-0.2,0.4-0.1,0.6
	c0.1,0.2,0.3,0.3,0.5,0.3l2.8,0.2l-1,2.6c-0.1,0.2,0,0.4,0.1,0.6c0.1,0.2,0.4,0.2,0.6,0.2L8.3,24v2.8c0,0.2,0.1,0.5,0.3,0.6
	c0.2,0.1,0.4,0,0.6-0.1l2.3-1.6l0.9,2.7c0,0.2,0.2,0.4,0.4,0.4c0.2,0.1,0.4,0,0.6-0.2L15,26.3z M23,5.8v-1l0,0V5.8z"/>
</svg>
