<svg id="Layer_1" data-name="Layer 1" xmlns="http://www.w3.org/2000/svg" viewBox="0 0 30 30"><defs><style>.cls-1{fill:#fff209;}</style></defs><title>!</title><path class="cls-1" d="M15.5,2.1A13,13,0,0,1,27.2,9.6a12.9,12.9,0,0,1-6.4,17,12.4,12.4,0,0,1-5.3,1.2A12.9,12.9,0,0,1,10.1,3.2a13.1,13.1,0,0,1,5.4-1.1m0-1.7h0A16.3,16.3,0,0,0,9.4,1.7,14.6,14.6,0,0,0,2.3,20.9a14.4,14.4,0,0,0,13.2,8.5,13.8,13.8,0,0,0,6-1.3A14.5,14.5,0,0,0,15.5.4"/><rect class="cls-1" x="14.7" y="9.2" width="1.7" height="11.48" rx="0.6"/><rect class="cls-1" x="14.7" y="9.2" width="1.7" height="11.48" rx="0.6" transform="translate(30.5 -0.6) rotate(90)"/></svg>