<svg xmlns="http://www.w3.org/2000/svg" viewBox="0 0 32 32" class="sr-lmt-plus-tabs__tab-icon srt-fill-primary-7"><path fill='#fff' fill-rule="nonzero" d="M0 5v21.84h6.85v-.88H.95v-4.3h5.78V10.2H1V5.9h14.63v5.12c-2.64.23-4.76 2.36-4.76 4.92s2.1 4.68 4.76 4.9v5.12h-7.5c-.87 0-1.28.03-1.28.07v.83h25.3V5H0zm5.78 6.1v9.68H.98V11.1h4.8zm9.83 8.83c-2.14-.22-3.8-1.92-3.8-4 0-2.07 1.66-3.76 3.8-4v8zm.97-8.02c2.14.25 3.8 1.96 3.8 4.04 0 2.04-1.66 3.77-3.8 4V11.9zM31.2 20.8h-4.83V11.1h4.83v9.68zm0-10.6h-5.77v11.48h5.77v4.3H16.57v-5.12c2.64-.22 4.75-2.36 4.75-4.9 0-2.58-2.08-4.7-4.74-4.92V5.9h14.64v4.3h-.02z"></path></svg>