<?xml version="1.0" encoding="utf-8"?>
<!-- Generator: Adobe Illustrator 24.0.1, SVG Export Plug-In . SVG Version: 6.00 Build 0)  -->
<svg version="1.1" id="Layer_1" xmlns="http://www.w3.org/2000/svg" xmlns:xlink="http://www.w3.org/1999/xlink" x="0px" y="0px"
	 viewBox="0 0 30 30" style="enable-background:new 0 0 30 30;" xml:space="preserve">
<style type="text/css">
	.st0{fill:#9B9B9B;}
</style>
<title>!</title>
<path class="st0" d="M17,10.2c-0.8,0-1.5-0.3-2-0.9c-0.7,0.7-1.7,1-2.6,0.8c-1.3-0.3-2.2-1.3-2.4-2.6c-0.2-1.1-0.1-3.8,4.7-6.4
	c0.2-0.1,0.4-0.1,0.6,0c4.8,2.6,4.9,5.3,4.7,6.4c-0.2,1.3-1.1,2.3-2.4,2.6L17,10.2z M15,7.6c0.2,0,0.4,0.1,0.6,0.3
	c0.3,0.7,1,1.1,1.7,1c0.8-0.2,1.3-0.8,1.4-1.6C19,5.7,17.6,3.9,15,2.4c-2.6,1.5-4,3.3-3.7,4.9c0.1,0.8,0.6,1.4,1.4,1.6
	c0.7,0.1,1.4-0.3,1.7-1C14.6,7.7,14.8,7.6,15,7.6z"/>
<path class="st0" d="M18,12.7h-0.2l-1-0.3c-1.1-0.5-2.5-0.5-3.6,0l-1,0.3c-0.3,0.1-0.7,0-0.8-0.3c0,0,0,0,0,0
	c-0.1-0.3,0-0.7,0.3-0.9l1-0.3c1.5-0.7,3.1-0.7,4.6,0l1,0.3c0.3,0.2,0.4,0.6,0.3,0.9C18.5,12.6,18.2,12.7,18,12.7z"/>
<path class="st0" d="M15,29C6.9,29,0.4,22.5,0.4,14.4c0,0,0,0,0,0c0-0.4,0.2-0.7,0.6-0.7h28c0.4,0,0.6,0.3,0.6,0.7
	C29.6,22.5,23.1,29,15,29C15,29,15,29,15,29z M1.7,15c0,7.3,6,13.3,13.3,13.3s13.3-6,13.3-13.3H1.7z"/>
<path class="st0" d="M15,26.8c-0.3,0-0.6-0.3-0.6-0.6l0,0v-2.8c0-0.4,0.2-0.7,0.6-0.7s0.6,0.3,0.6,0.7v2.8
	C15.6,26.5,15.3,26.8,15,26.8L15,26.8z"/>
<path class="st0" d="M21.3,25.2L20.7,25l-1.6-2.2c-0.2-0.3-0.1-0.7,0.2-0.9c0.2-0.2,0.6-0.2,0.8,0c0,0,0,0,0.1,0.1l1.6,2.2
	c0.2,0.3,0.1,0.7-0.2,0.9L21.3,25.2z"/>
<path class="st0" d="M25.3,20h-0.2L22,19c-0.3-0.1-0.5-0.4-0.4-0.7c0,0,0,0,0-0.1c0.1-0.3,0.5-0.5,0.8-0.4l3.1,1
	c0.3,0.1,0.5,0.5,0.4,0.8C25.8,19.9,25.6,20,25.3,20z"/>
<path class="st0" d="M4.7,20c-0.3,0-0.6-0.2-0.6-0.5c-0.1-0.3,0.1-0.7,0.4-0.8l2.9-1c0.3-0.1,0.7,0,0.8,0.4c0,0,0,0.1,0,0.1
	c0.1,0.3,0,0.7-0.3,0.8c0,0,0,0-0.1,0l-2.9,0.9L4.7,20z"/>
<path class="st0" d="M8.8,25.2L8.4,25c-0.3-0.2-0.3-0.6-0.2-0.8c0,0,0,0,0.1-0.1l1.7-2.4c0.2-0.3,0.7-0.4,1-0.2
	c0.2,0.3,0.3,0.7,0.1,0.9l-1.8,2.5C9.2,25.1,9,25.2,8.8,25.2z"/>
<path class="st0" d="M15,21.6c-3.2,0-5.8-2.1-6-4.9c0.1-0.3,0.3-0.6,0.6-0.7c0.4,0,0.6,0.3,0.7,0.6c0.2,2.1,2.2,3.7,4.7,3.7
	s4.5-1.6,4.7-3.7c0.1-0.3,0.3-0.6,0.7-0.6c0.3,0.1,0.5,0.4,0.6,0.7C20.8,19.5,18.2,21.6,15,21.6z"/>
</svg>
