<?xml version="1.0" encoding="utf-8"?>
<!-- Generator: Adobe Illustrator 24.0.1, SVG Export Plug-In . SVG Version: 6.00 Build 0)  -->
<svg version="1.1" id="Layer_1" xmlns="http://www.w3.org/2000/svg" xmlns:xlink="http://www.w3.org/1999/xlink" x="0px" y="0px"
	 viewBox="0 0 30 30" style="enable-background:new 0 0 30 30;" xml:space="preserve">
<style type="text/css">
	.st0{fill:#FFF209;}
</style>
<title>!</title>
<path class="st0" d="M15,30C6.7,30.1,0,23.4-0.1,15.1c0-6,3.5-11.4,8.9-13.8C10.7,0.4,12.9,0,15,0c8.3-0.1,15,6.6,15.1,14.9
	c0,6-3.5,11.4-8.9,13.8C19.3,29.6,17.1,30,15,30z M15,1.3C7.4,1.3,1.3,7.4,1.3,15c0,2,0.4,3.9,1.2,5.7c2.2,4.9,7.1,8,12.5,8
	c2,0,3.9-0.4,5.7-1.2c3.3-1.5,5.9-4.3,7.2-7.7c1.2-3.4,1.1-7.2-0.4-10.5C25.3,4.4,20.4,1.3,15,1.3z"/>
<path class="st0" d="M14.1,11.1l0.5,0.2l4.1,3.4c0.3,0.2,0.4,0.7,0.1,1c0,0-0.1,0.1-0.1,0.1l-4.2,2.9c-0.1,0.1-0.2,0.2-0.4,0.2
	c-0.4,0-0.7-0.3-0.7-0.7c0,0,0-0.1,0-0.1v-6.2c-0.1-0.4,0.2-0.7,0.6-0.8C14,11.1,14.1,11.1,14.1,11.1 M14.1,9.8
	c-1.2,0-2.1,0.9-2.1,2.1c0,0,0,0,0,0v6.2c0,1.2,0.9,2.1,2.1,2.1h0c0.4,0,0.9-0.1,1.2-0.4l4.1-2.9c0.6-0.3,0.9-0.9,0.9-1.6
	c0-0.6-0.2-1.3-0.7-1.7l-4.2-3.3C15.1,9.9,14.6,9.7,14.1,9.8"/>
</svg>
